<?xml version="1.0" encoding="utf-8"?>
<!-- Generator: Adobe Illustrator 16.0.0, SVG Export Plug-In . SVG Version: 6.00 Build 0)  -->
<!DOCTYPE svg PUBLIC "-//W3C//DTD SVG 1.1//EN" "http://www.w3.org/Graphics/SVG/1.1/DTD/svg11.dtd">
<svg version="1.1" id="Layer_1" xmlns="http://www.w3.org/2000/svg" xmlns:xlink="http://www.w3.org/1999/xlink" x="0px" y="0px"
	 width="230.518px" height="64.503px" viewBox="0 0 230.518 64.503" enable-background="new 0 0 230.518 64.503"
	 xml:space="preserve">
<g>
	<g>
		<g>
			<path fill="#FFFFFF" d="M105.129,45.625c0,11.066-5.156,16.599-15.468,16.599c-10.004,0-15.006-5.404-15.006-16.213V24.735h8.325
				v21.378c0,5.961,2.329,8.941,6.989,8.941c4.574,0,6.86-2.878,6.86-8.633V24.735h8.299V45.625z"/>
			<path fill="#FFFFFF" d="M113.146,61.581V24.735h13.053c13.087,0,19.63,5.987,19.63,17.96c0,5.739-1.786,10.321-5.357,13.747
				c-3.571,3.426-8.329,5.139-14.273,5.139H113.146z M121.445,31.493v23.356h4.111c3.597,0,6.419-1.079,8.466-3.237
				c2.047-2.159,3.071-5.096,3.071-8.813c0-3.511-1.015-6.273-3.045-8.286s-4.878-3.019-8.543-3.019H121.445z"/>
			<path fill="#FFFFFF" d="M160.243,61.581h-8.299V24.735h8.299V61.581z"/>
			<path fill="#FFFFFF" d="M166.924,60.168v-8.222c1.49,1.25,3.109,2.188,4.856,2.813c1.748,0.625,3.512,0.938,5.293,0.938
				c1.044,0,1.957-0.094,2.736-0.283c0.779-0.188,1.43-0.45,1.953-0.784s0.912-0.728,1.169-1.182
				c0.257-0.454,0.386-0.946,0.386-1.478c0-0.719-0.206-1.362-0.617-1.927c-0.411-0.565-0.973-1.088-1.683-1.567
				c-0.711-0.479-1.555-0.942-2.531-1.388c-0.977-0.445-2.03-0.899-3.161-1.362c-2.877-1.199-5.023-2.663-6.436-4.394
				c-1.414-1.73-2.12-3.82-2.12-6.27c0-1.918,0.386-3.567,1.156-4.946c0.771-1.379,1.82-2.514,3.147-3.405
				c1.328-0.891,2.865-1.545,4.612-1.965s3.597-0.63,5.55-0.63c1.918,0,3.619,0.116,5.101,0.347
				c1.481,0.231,2.848,0.587,4.098,1.066v7.682c-0.617-0.428-1.289-0.805-2.017-1.13c-0.728-0.325-1.478-0.595-2.248-0.81
				c-0.771-0.214-1.538-0.373-2.3-0.475c-0.762-0.103-1.486-0.154-2.171-0.154c-0.942,0-1.799,0.09-2.57,0.27
				c-0.771,0.18-1.422,0.433-1.953,0.758c-0.531,0.326-0.942,0.715-1.233,1.169c-0.292,0.454-0.437,0.964-0.437,1.529
				c0,0.617,0.163,1.169,0.488,1.658c0.325,0.488,0.788,0.951,1.388,1.387c0.6,0.437,1.327,0.865,2.184,1.285
				c0.856,0.42,1.824,0.853,2.903,1.298c1.473,0.617,2.796,1.271,3.97,1.965s2.18,1.478,3.019,2.351s1.481,1.872,1.927,2.994
				c0.445,1.122,0.668,2.428,0.668,3.918c0,2.056-0.39,3.782-1.169,5.178c-0.78,1.396-1.837,2.527-3.173,3.392
				c-1.336,0.865-2.891,1.486-4.664,1.863s-3.645,0.565-5.614,0.565c-2.021,0-3.944-0.172-5.768-0.514S168.26,60.853,166.924,60.168
				z"/>
			<path fill="#FFFFFF" d="M230.518,61.581h-9.045l-2.621-8.196h-13.104l-2.595,8.196h-8.993l13.413-36.846h9.841L230.518,61.581z
				 M216.951,47.012l-3.957-12.384c-0.292-0.925-0.498-2.03-0.617-3.315h-0.205c-0.086,1.08-0.301,2.15-0.643,3.212l-4.008,12.487
				H216.951z"/>
		</g>
	</g>
	<path fill="#FFFFFF" d="M66.496,29.938c-0.389-8.875-3.302-15.985-8.75-21.32C51.881,2.873,43.823,0,33.573,0
		C23.163,0,14.965,2.962,8.979,8.889C2.994,14.814,0,22.882,0,33.092c0,9.449,2.903,17.046,8.708,22.792
		c5.806,5.745,13.813,8.619,24.023,8.619c1.27,0,2.506-0.044,3.712-0.13V49.636c-1.048,0.217-2.162,0.333-3.352,0.333
		c-9.168,0-13.753-5.746-13.753-17.237c0-12.132,4.545-18.198,13.633-18.198c9.53,0,14.294,5.905,14.294,17.717
		c0,0.763-0.027,1.498-0.072,2.213v27.689c0.034-0.013,0.067-0.027,0.101-0.04v2.389h19.25V29.938H66.496z"/>
</g>
</svg>
