<?xml version="1.0" encoding="utf-8"?>
<!-- Generator: Adobe Illustrator 16.0.0, SVG Export Plug-In . SVG Version: 6.00 Build 0)  -->
<!DOCTYPE svg PUBLIC "-//W3C//DTD SVG 1.1//EN" "http://www.w3.org/Graphics/SVG/1.1/DTD/svg11.dtd">
<svg version="1.1" id="Layer_1" xmlns="http://www.w3.org/2000/svg" xmlns:xlink="http://www.w3.org/1999/xlink" x="0px" y="0px"
	 width="230.518px" height="96.766px" viewBox="0 0 230.518 96.766" enable-background="new 0 0 230.518 96.766"
	 xml:space="preserve">
<g>
	<g>
		<g>
			<g>
				<path fill="#F1F2F2" d="M105.129,45.625c0,11.066-5.156,16.599-15.468,16.599c-10.004,0-15.006-5.404-15.006-16.213V24.735
					h8.325v21.378c0,5.961,2.329,8.941,6.989,8.941c4.573,0,6.86-2.878,6.86-8.633V24.735h8.299V45.625z"/>
				<path fill="#F1F2F2" d="M113.146,61.581V24.735h13.053c13.087,0,19.631,5.987,19.631,17.96c0,5.739-1.786,10.321-5.357,13.747
					s-8.329,5.139-14.273,5.139H113.146z M121.445,31.493v23.356h4.11c3.598,0,6.42-1.079,8.467-3.237
					c2.047-2.159,3.07-5.096,3.07-8.813c0-3.511-1.015-6.273-3.045-8.286c-2.029-2.013-4.878-3.019-8.543-3.019H121.445z"/>
				<path fill="#F1F2F2" d="M160.243,61.581h-8.299V24.735h8.299V61.581z"/>
				<path fill="#F1F2F2" d="M166.924,60.168v-8.222c1.49,1.25,3.109,2.188,4.856,2.813c1.747,0.625,3.512,0.938,5.293,0.938
					c1.045,0,1.957-0.094,2.736-0.283s1.431-0.45,1.953-0.784s0.912-0.728,1.169-1.182c0.257-0.454,0.386-0.946,0.386-1.478
					c0-0.719-0.206-1.362-0.617-1.927c-0.411-0.565-0.973-1.088-1.683-1.567c-0.711-0.479-1.555-0.942-2.531-1.388
					c-0.977-0.445-2.029-0.899-3.16-1.362c-2.878-1.199-5.023-2.663-6.437-4.394c-1.413-1.73-2.12-3.82-2.12-6.27
					c0-1.918,0.386-3.567,1.156-4.946c0.771-1.379,1.82-2.514,3.147-3.405c1.328-0.891,2.865-1.545,4.612-1.965
					s3.598-0.63,5.55-0.63c1.919,0,3.619,0.116,5.101,0.347c1.481,0.231,2.848,0.587,4.099,1.066v7.682
					c-0.617-0.428-1.289-0.805-2.018-1.13c-0.728-0.325-1.478-0.595-2.248-0.81c-0.771-0.214-1.537-0.373-2.3-0.475
					c-0.762-0.103-1.486-0.154-2.171-0.154c-0.942,0-1.799,0.09-2.569,0.27c-0.771,0.18-1.422,0.433-1.953,0.758
					c-0.531,0.326-0.942,0.715-1.233,1.169c-0.291,0.454-0.437,0.964-0.437,1.529c0,0.617,0.163,1.169,0.488,1.658
					c0.325,0.488,0.788,0.951,1.388,1.387c0.6,0.437,1.327,0.865,2.184,1.285c0.856,0.42,1.824,0.853,2.903,1.298
					c1.474,0.617,2.797,1.271,3.97,1.965c1.174,0.694,2.18,1.478,3.02,2.351c0.839,0.874,1.481,1.872,1.927,2.994
					s0.668,2.428,0.668,3.918c0,2.056-0.39,3.782-1.169,5.178s-1.837,2.527-3.173,3.392c-1.336,0.865-2.891,1.486-4.664,1.863
					c-1.772,0.376-3.645,0.565-5.614,0.565c-2.021,0-3.943-0.172-5.768-0.514S168.26,60.853,166.924,60.168z"/>
				<path fill="#F1F2F2" d="M230.518,61.581h-9.045l-2.621-8.196h-13.104l-2.595,8.196h-8.993l13.412-36.846h9.841L230.518,61.581z
					 M216.951,47.012l-3.957-12.384c-0.292-0.925-0.498-2.03-0.617-3.315h-0.205c-0.086,1.08-0.301,2.15-0.643,3.212l-4.008,12.487
					H216.951z"/>
			</g>
		</g>
		<path fill="#F1F2F2" d="M66.496,29.938c-0.389-8.875-3.302-15.985-8.75-21.32C51.882,2.873,43.823,0,33.573,0
			C23.163,0,14.965,2.962,8.979,8.889C2.994,14.814,0,22.882,0,33.092c0,9.449,2.903,17.046,8.709,22.792
			c5.806,5.745,13.813,8.619,24.023,8.619c1.27,0,2.506-0.044,3.712-0.13V49.636c-1.049,0.217-2.162,0.333-3.352,0.333
			c-9.169,0-13.754-5.746-13.754-17.237c0-12.132,4.545-18.198,13.634-18.198c9.529,0,14.294,5.905,14.294,17.717
			c0,0.763-0.027,1.498-0.072,2.213v27.689c0.034-0.013,0.066-0.027,0.101-0.04v2.389h19.25V29.938H66.496z"/>
	</g>
	<g>
		<g>
			<path fill="#F1F2F2" d="M107.39,95.979c-2.242,0-4.07-0.73-5.482-2.19c-1.413-1.459-2.119-3.362-2.119-5.707
				c0-2.476,0.717-4.478,2.151-6.007c1.435-1.529,3.335-2.294,5.702-2.294c2.234,0,4.043,0.732,5.423,2.195
				c1.38,1.464,2.069,3.394,2.069,5.789c0,2.461-0.716,4.445-2.146,5.953S109.69,95.979,107.39,95.979z M107.543,82.817
				c-1.238,0-2.221,0.464-2.949,1.393c-0.729,0.928-1.092,2.157-1.092,3.686c0,1.551,0.363,2.778,1.092,3.681
				s1.682,1.354,2.861,1.354c1.217,0,2.181-0.438,2.895-1.316s1.07-2.095,1.07-3.654c0-1.624-0.346-2.887-1.037-3.79
				C109.69,83.269,108.744,82.817,107.543,82.817z"/>
		</g>
		<g>
			<path fill="#F1F2F2" d="M141.292,95.707h-3.527V80.044h3.527V95.707z"/>
			<path fill="#F1F2F2" d="M157.708,94.658c-1.529,0.881-3.43,1.321-5.701,1.321c-2.52,0-4.506-0.697-5.958-2.091
				c-1.453-1.395-2.18-3.315-2.18-5.762c0-2.461,0.794-4.467,2.382-6.018c1.587-1.551,3.698-2.327,6.335-2.327
				c1.66,0,3.123,0.229,4.391,0.688v3.31c-1.209-0.699-2.688-1.048-4.435-1.048c-1.464,0-2.656,0.475-3.577,1.425
				s-1.382,2.219-1.382,3.806c0,1.609,0.413,2.854,1.24,3.736c0.826,0.881,1.941,1.321,3.348,1.321c0.844,0,1.514-0.12,2.01-0.36
				v-3.058h-3.135v-2.818h6.662V94.658z"/>
			<path fill="#F1F2F2" d="M174.846,95.707h-3.561l-6.455-9.841c-0.379-0.575-0.641-1.009-0.786-1.3H164
				c0.058,0.553,0.087,1.398,0.087,2.534v8.607h-3.331V80.044h3.801l6.215,9.535c0.284,0.43,0.546,0.856,0.786,1.278h0.044
				c-0.059-0.364-0.087-1.081-0.087-2.151v-8.662h3.331V95.707z"/>
		</g>
		<g>
			<g>
				<path fill="#F1F2F2" d="M96.331,94.14c-2.282,1.315-5.119,1.973-8.511,1.973c-3.762,0-6.727-1.041-8.895-3.123
					c-2.169-2.082-3.253-4.949-3.253-8.601c0-3.674,1.185-6.669,3.555-8.984c2.369-2.315,5.521-3.473,9.457-3.473
					c2.479,0,4.663,0.342,6.555,1.027V77.9c-1.805-1.044-4.012-1.565-6.62-1.565c-2.185,0-3.965,0.709-5.34,2.128
					c-1.375,1.418-2.063,3.313-2.063,5.682c0,2.402,0.616,4.261,1.851,5.577c1.233,1.315,2.899,1.973,4.997,1.973
					c1.261,0,2.261-0.179,3-0.538v-4.565h-4.68v-4.207h9.946V94.14z"/>
			</g>
		</g>
		<g>
			<g>
				<path fill="#F1F2F2" d="M119.297,94.809v-5.217c0.945,0.793,1.973,1.389,3.081,1.785c1.109,0.397,2.229,0.595,3.359,0.595
					c0.663,0,1.241-0.06,1.736-0.179c0.494-0.12,0.907-0.286,1.239-0.498c0.331-0.212,0.579-0.462,0.742-0.75
					c0.162-0.288,0.244-0.601,0.244-0.938c0-0.457-0.131-0.864-0.392-1.223c-0.261-0.358-0.617-0.69-1.067-0.995
					c-0.451-0.304-0.987-0.598-1.606-0.88c-0.619-0.282-1.288-0.571-2.006-0.864c-1.826-0.761-3.188-1.69-4.084-2.788
					c-0.897-1.098-1.346-2.424-1.346-3.979c0-1.217,0.245-2.264,0.734-3.139s1.154-1.595,1.997-2.161
					c0.843-0.565,1.818-0.98,2.927-1.247s2.283-0.399,3.522-0.399c1.217,0,2.296,0.073,3.236,0.22
					c0.939,0.147,1.807,0.373,2.601,0.677v4.875c-0.392-0.271-0.818-0.511-1.28-0.717s-0.938-0.378-1.427-0.514
					s-0.976-0.237-1.459-0.302c-0.483-0.065-0.943-0.098-1.378-0.098c-0.598,0-1.142,0.057-1.631,0.171
					c-0.488,0.114-0.902,0.275-1.239,0.481c-0.337,0.207-0.598,0.454-0.782,0.742s-0.277,0.611-0.277,0.97
					c0,0.391,0.104,0.742,0.31,1.051c0.207,0.31,0.5,0.604,0.881,0.881c0.381,0.277,0.843,0.549,1.386,0.815
					c0.544,0.267,1.158,0.541,1.843,0.824c0.935,0.391,1.774,0.807,2.52,1.247c0.744,0.44,1.383,0.938,1.915,1.492
					c0.533,0.554,0.94,1.188,1.224,1.899c0.282,0.712,0.424,1.541,0.424,2.487c0,1.304-0.247,2.399-0.742,3.285
					c-0.495,0.886-1.166,1.604-2.014,2.152c-0.848,0.549-1.834,0.943-2.959,1.182c-1.125,0.239-2.313,0.359-3.563,0.359
					c-1.282,0-2.502-0.109-3.66-0.326C121.147,95.57,120.145,95.244,119.297,94.809z"/>
			</g>
		</g>
	</g>
	<g>
		<rect x="67.869" y="83.794" fill="#F1F2F2" width="1.649" height="5.764"/>
		<rect x="61.89" y="81.482" fill="#F1F2F2" width="1.649" height="10.388"/>
		<rect x="55.91" y="76.587" fill="#F1F2F2" width="1.649" height="20.179"/>
	</g>
	<g>
		<rect x="180.552" y="83.794" fill="#F1F2F2" width="1.649" height="5.764"/>
		<rect x="186.531" y="81.482" fill="#F1F2F2" width="1.649" height="10.388"/>
		<rect x="192.511" y="76.587" fill="#F1F2F2" width="1.649" height="20.179"/>
	</g>
</g>
</svg>
